<?xml version="1.0" encoding="utf-8"?>
<!-- Generated by IcoMoon.io -->
<!DOCTYPE svg PUBLIC "-//W3C//DTD SVG 1.1//EN" "http://www.w3.org/Graphics/SVG/1.1/DTD/svg11.dtd">
<svg version="1.1" xmlns="http://www.w3.org/2000/svg" xmlns:xlink="http://www.w3.org/1999/xlink" width="13" height="13" viewBox="0 0 13 13">
<path fill="#aaa" d="M5.688 3.859c0-0.335 0.274-0.609 0.609-0.609h0.406c0.335 0 0.609 0.274 0.609 0.609v0.406c0 0.335-0.274 0.609-0.609 0.609h-0.406c-0.335 0-0.609-0.274-0.609-0.609v-0.406z"></path>
<path fill="#aaa" d="M8.125 9.75h-3.25v-0.813h0.813v-2.438h-0.813v-0.813h2.438v3.25h0.813z"></path>
<path fill="#aaa" d="M6.5 0c-3.59 0-6.5 2.91-6.5 6.5s2.91 6.5 6.5 6.5 6.5-2.91 6.5-6.5-2.91-6.5-6.5-6.5zM6.5 11.781c-2.917 0-5.281-2.365-5.281-5.281s2.365-5.281 5.281-5.281 5.281 2.365 5.281 5.281-2.365 5.281-5.281 5.281z"></path>
</svg>
