<?xml version="1.0" encoding="utf-8"?>
<!-- Generated by IcoMoon.io -->
<!DOCTYPE svg PUBLIC "-//W3C//DTD SVG 1.1//EN" "http://www.w3.org/Graphics/SVG/1.1/DTD/svg11.dtd">
<svg version="1.1" xmlns="http://www.w3.org/2000/svg" xmlns:xlink="http://www.w3.org/1999/xlink" width="13" height="13" viewBox="0 0 13 13">
<path fill="#aaa" d="M6.5 0c-3.59 0-6.5 2.91-6.5 6.5s2.91 6.5 6.5 6.5 6.5-2.91 6.5-6.5-2.91-6.5-6.5-6.5zM6.5 11.375c-2.692 0-4.875-2.183-4.875-4.875s2.183-4.875 4.875-4.875c2.692 0 4.875 2.183 4.875 4.875s-2.183 4.875-4.875 4.875zM4.063 6.5c0-1.346 1.091-2.438 2.438-2.438s2.438 1.091 2.438 2.438c0 1.346-1.091 2.438-2.438 2.438s-2.438-1.091-2.438-2.438z"></path>
</svg>
